<svg width="1500" height="500" viewBox="0 0 1500 500" xmlns="http://www.w3.org/2000/svg">
  <defs>
    <filter id="glitch1">
      <feTurbulence type="fractalNoise" baseFrequency="0.9 0.1" numOctaves="1" result="noise"/>
      <feDisplacementMap in="SourceGraphic" in2="noise" scale="4" xChannelSelector="R" yChannelSelector="G"/>
    </filter>
    <filter id="scanline">
      <feFlood flood-color="#000" flood-opacity="0.08" result="flood"/>
      <feComposite in="flood" in2="SourceGraphic" operator="over"/>
    </filter>
    <filter id="blur1">
      <feGaussianBlur stdDeviation="1.5"/>
    </filter>
    <filter id="glow">
      <feGaussianBlur stdDeviation="3" result="b"/>
      <feMerge><feMergeNode in="b"/><feMergeNode in="SourceGraphic"/></feMerge>
    </filter>
    <filter id="goldglow">
      <feGaussianBlur stdDeviation="6" result="b"/>
      <feMerge><feMergeNode in="b"/><feMergeNode in="SourceGraphic"/></feMerge>
    </filter>
    <clipPath id="main">
      <rect width="1500" height="500"/>
    </clipPath>
  </defs>

  <rect width="1500" height="500" fill="#000"/>

  <!-- Static noise texture via tiny rects -->
  <g opacity="0.06" fill="#fff" clip-path="url(#main)">
    <rect x="0" y="12" width="1500" height="1"/><rect x="0" y="28" width="1500" height="1"/>
    <rect x="0" y="44" width="1500" height="1"/><rect x="0" y="58" width="1500" height="1"/>
    <rect x="0" y="72" width="1500" height="1"/><rect x="0" y="88" width="1500" height="1"/>
    <rect x="0" y="102" width="1500" height="1"/><rect x="0" y="118" width="1500" height="1"/>
    <rect x="0" y="132" width="1500" height="1"/><rect x="0" y="148" width="1500" height="1"/>
    <rect x="0" y="162" width="1500" height="1"/><rect x="0" y="178" width="1500" height="1"/>
    <rect x="0" y="192" width="1500" height="1"/><rect x="0" y="208" width="1500" height="1"/>
    <rect x="0" y="222" width="1500" height="1"/><rect x="0" y="238" width="1500" height="1"/>
    <rect x="0" y="252" width="1500" height="1"/><rect x="0" y="268" width="1500" height="1"/>
    <rect x="0" y="282" width="1500" height="1"/><rect x="0" y="298" width="1500" height="1"/>
    <rect x="0" y="312" width="1500" height="1"/><rect x="0" y="328" width="1500" height="1"/>
    <rect x="0" y="342" width="1500" height="1"/><rect x="0" y="358" width="1500" height="1"/>
    <rect x="0" y="372" width="1500" height="1"/><rect x="0" y="388" width="1500" height="1"/>
    <rect x="0" y="402" width="1500" height="1"/><rect x="0" y="418" width="1500" height="1"/>
    <rect x="0" y="432" width="1500" height="1"/><rect x="0" y="448" width="1500" height="1"/>
    <rect x="0" y="462" width="1500" height="1"/><rect x="0" y="478" width="1500" height="1"/>
    <rect x="0" y="492" width="1500" height="1"/>
  </g>

  <!-- Random binary / glitch chars — left cluster -->
  <g font-family="'Courier New',monospace" fill="#fff" clip-path="url(#main)">
    <text x="40" y="80" font-size="9" opacity="0.12">01001101 10100010 11001011 00110100</text>
    <text x="20" y="110" font-size="8" opacity="0.08">SMLWS7IY3G 10100110 01111001 &amp;PXIP</text>
    <text x="60" y="140" font-size="9" opacity="0.1">00110100111001 11010010 10001101</text>
    <text x="30" y="165" font-size="8" opacity="0.07">▲ 10011100 01101001 11000110 ▼</text>
    <text x="15" y="195" font-size="9" opacity="0.11">XY/Z01000000 07g 10001101 YVZ</text>
    <text x="50" y="225" font-size="8" opacity="0.09">001011 11100101 0001 10110010</text>
    <text x="25" y="255" font-size="9" opacity="0.08">1pgrn10000100 ::::: 00110</text>
    <text x="40" y="285" font-size="8" opacity="0.1">▲ LATE 00100101 10010 01101 ▲</text>
    <text x="10" y="315" font-size="9" opacity="0.09">00100010 11001 01110001 10010011</text>
    <text x="35" y="345" font-size="8" opacity="0.07">011r010 0101 1000010 rr0101</text>
    <text x="55" y="375" font-size="9" opacity="0.11">1001110 01 0010001 110001 01</text>
    <text x="20" y="405" font-size="8" opacity="0.08">▼ 10010 001101 10001 001 ▲</text>
    <text x="45" y="430" font-size="9" opacity="0.1">00100011 10001 01100 1001</text>
    <text x="15" y="460" font-size="8" opacity="0.07">010110 1001 00110 1001 010</text>
  </g>

  <!-- Random binary / glitch chars — right cluster -->
  <g font-family="'Courier New',monospace" fill="#fff" clip-path="url(#main)">
    <text x="1100" y="80" font-size="9" opacity="0.12">10110010 01001101 11000110 01</text>
    <text x="1120" y="110" font-size="8" opacity="0.08">X5$&amp;&amp;@YX5SVP 10001 0110</text>
    <text x="1090" y="140" font-size="9" opacity="0.1">11000110 01001101 10110010</text>
    <text x="1110" y="165" font-size="8" opacity="0.07">BTmF60911005 01 10110</text>
    <text x="1080" y="195" font-size="9" opacity="0.11">01600T1gmn16a 1001 0110</text>
    <text x="1100" y="225" font-size="8" opacity="0.09">rqm001grn91 10010 01101</text>
    <text x="1120" y="255" font-size="9" opacity="0.08">01010010 10001 011 0010</text>
    <text x="1090" y="285" font-size="8" opacity="0.1">▲ 10010 01101 0010 ▲</text>
    <text x="1110" y="315" font-size="9" opacity="0.09">11001 01110001 10010011</text>
    <text x="1080" y="345" font-size="8" opacity="0.07">001 10110 01001 101100</text>
    <text x="1100" y="375" font-size="9" opacity="0.11">010 01101 001 10010 01</text>
    <text x="1120" y="405" font-size="8" opacity="0.08">▼ 10001 00110 1001 ▼</text>
    <text x="1090" y="430" font-size="9" opacity="0.1">01101 10010 001 10110</text>
    <text x="1110" y="460" font-size="8" opacity="0.07">10010 01101 00110 101</text>
  </g>

  <!-- Glitch horizontal bar — mid -->
  <g opacity="0.18" clip-path="url(#main)">
    <rect x="0" y="228" width="1500" height="3" fill="#fff"/>
    <rect x="0" y="234" width="1500" height="1" fill="#fff" opacity="0.4"/>
    <rect x="200" y="240" width="800" height="2" fill="#fff" opacity="0.3"/>
  </g>

  <!-- Glitch shift bars (left/right white blocks like your image) -->
  <g clip-path="url(#main)">
    <!-- Left -->
    <rect x="130" y="150" width="55" height="210" fill="#fff" opacity="0.07"/>
    <rect x="150" y="140" width="20" height="230" fill="#fff" opacity="0.05"/>
    <!-- Right -->
    <rect x="1320" y="150" width="55" height="210" fill="#fff" opacity="0.07"/>
    <rect x="1330" y="140" width="20" height="230" fill="#fff" opacity="0.05"/>
    <!-- thin repeat lines -->
    <rect x="100" y="160" width="8" height="200" fill="#fff" opacity="0.04"/>
    <rect x="1395" y="160" width="8" height="200" fill="#fff" opacity="0.04"/>
  </g>

  <!-- Gold binary highlight line (like your image) -->
  <text x="750" y="244"
    font-family="'Courier New',monospace"
    font-size="13"
    text-anchor="middle"
    fill="#c8a020"
    opacity="0.9"
    filter="url(#glow)"
    letter-spacing="1">0100111011010010110111001010011101011111011010100</text>

  <!-- EREBUS title glow -->
  <text x="750" y="310"
    font-family="'Courier New',Courier,monospace"
    font-size="138"
    font-weight="bold"
    text-anchor="middle"
    fill="#fff"
    opacity="0.06"
    filter="url(#blur1)"
    letter-spacing="16">EREBUS</text>

  <!-- EREBUS title — slight glitch offset layer -->
  <text x="753" y="309"
    font-family="'Courier New',Courier,monospace"
    font-size="138"
    font-weight="bold"
    text-anchor="middle"
    fill="#c8a020"
    opacity="0.04"
    letter-spacing="16">EREBUS</text>

  <!-- EREBUS title main -->
  <text x="750" y="310"
    font-family="'Courier New',Courier,monospace"
    font-size="138"
    font-weight="bold"
    text-anchor="middle"
    fill="#ffffff"
    filter="url(#glow)"
    letter-spacing="16">EREBUS</text>

  <!-- Subtitle -->
  <text x="750" y="360"
    font-family="'Courier New',monospace"
    font-size="14"
    text-anchor="middle"
    fill="#888"
    letter-spacing="7">autonomous ai agent · solana · x/twitter</text>

  <!-- Divider -->
  <line x1="380" y1="380" x2="1120" y2="380" stroke="#333" stroke-width="0.8"/>

  <!-- Tags -->
  <g font-family="'Courier New',monospace" font-size="11" letter-spacing="1" fill="#555">
    <text x="430" y="408">python</text>
    <text x="520" y="408">·</text>
    <text x="540" y="408">claude</text>
    <text x="630" y="408">·</text>
    <text x="650" y="408">solana</text>
    <text x="740" y="408">·</text>
    <text x="760" y="408" fill="#c8a020">pump.fun</text>
    <text x="860" y="408">·</text>
    <text x="880" y="408">fastapi</text>
    <text x="970" y="408">·</text>
    <text x="990" y="408">render</text>
  </g>

  <!-- Bottom tagline -->
  <text x="750" y="456"
    font-family="'Courier New',monospace"
    font-size="11"
    text-anchor="middle"
    fill="#333"
    letter-spacing="5">the signal does not ask permission</text>

  <!-- Corner brackets -->
  <g stroke="#333" stroke-width="1.2" fill="none">
    <polyline points="28,28 28,60 60,60"/><polyline points="28,28 60,28"/>
    <polyline points="1472,28 1440,28 1440,60"/><polyline points="1472,28 1472,60"/>
    <polyline points="28,472 28,440 60,440"/><polyline points="28,472 60,472"/>
    <polyline points="1472,472 1440,472 1440,440"/><polyline points="1472,472 1472,440"/>
  </g>

  <!-- Corner gold dots -->
  <circle cx="44" cy="44" r="3" fill="#c8a020" opacity="0.8" filter="url(#glow)"/>
  <circle cx="1456" cy="44" r="3" fill="#c8a020" opacity="0.2"/>
  <circle cx="44" cy="456" r="3" fill="#c8a020" opacity="0.1"/>
  <circle cx="1456" cy="456" r="3" fill="#c8a020" opacity="0.1"/>

  <!-- System text -->
  <text x="62" y="48" font-family="'Courier New',monospace" font-size="9" fill="#333" letter-spacing="2">SYS::ACTIVE</text>
  <text x="1438" y="48" font-family="'Courier New',monospace" font-size="9" fill="#333" letter-spacing="2" text-anchor="end">@wwwEREBUS</text>
</svg>
