<svg width="1280" height="400" viewBox="0 0 1280 400" xmlns="http://www.w3.org/2000/svg">
  <defs>
    <radialGradient id="bgGlow" cx="50%" cy="50%" r="60%">
      <stop offset="0%" stop-color="#1a0000"/>
      <stop offset="100%" stop-color="#000000"/>
    </radialGradient>
    <radialGradient id="redGlow" cx="50%" cy="50%" r="50%">
      <stop offset="0%" stop-color="#ff2200" stop-opacity="0.15"/>
      <stop offset="100%" stop-color="#ff2200" stop-opacity="0"/>
    </radialGradient>
    <filter id="glow">
      <feGaussianBlur stdDeviation="3" result="blur"/>
      <feMerge><feMergeNode in="blur"/><feMergeNode in="SourceGraphic"/></feMerge>
    </filter>
    <filter id="softglow">
      <feGaussianBlur stdDeviation="8" result="blur"/>
      <feMerge><feMergeNode in="blur"/><feMergeNode in="SourceGraphic"/></feMerge>
    </filter>
    <filter id="textglow">
      <feGaussianBlur stdDeviation="6" result="blur"/>
      <feMerge><feMergeNode in="blur"/><feMergeNode in="SourceGraphic"/></feMerge>
    </filter>
  </defs>

  <!-- Background -->
  <rect width="1280" height="400" fill="url(#bgGlow)"/>
  <rect width="1280" height="400" fill="url(#redGlow)"/>

  <!-- Scan lines -->
  <g opacity="0.03">
    <line x1="0" y1="0" x2="1280" y2="0" stroke="#ff3300" stroke-width="1"/>
    <line x1="0" y1="4" x2="1280" y2="4" stroke="#ff3300" stroke-width="1"/>
    <line x1="0" y1="8" x2="1280" y2="8" stroke="#ff3300" stroke-width="1"/>
    <line x1="0" y1="12" x2="1280" y2="12" stroke="#ff3300" stroke-width="1"/>
    <line x1="0" y1="16" x2="1280" y2="16" stroke="#ff3300" stroke-width="1"/>
    <line x1="0" y1="20" x2="1280" y2="20" stroke="#ff3300" stroke-width="1"/>
    <line x1="0" y1="24" x2="1280" y2="24" stroke="#ff3300" stroke-width="1"/>
    <line x1="0" y1="28" x2="1280" y2="28" stroke="#ff3300" stroke-width="1"/>
    <line x1="0" y1="32" x2="1280" y2="32" stroke="#ff3300" stroke-width="1"/>
    <line x1="0" y1="36" x2="1280" y2="36" stroke="#ff3300" stroke-width="1"/>
    <line x1="0" y1="40" x2="1280" y2="40" stroke="#ff3300" stroke-width="1"/>
    <line x1="0" y1="44" x2="1280" y2="44" stroke="#ff3300" stroke-width="1"/>
    <line x1="0" y1="48" x2="1280" y2="48" stroke="#ff3300" stroke-width="1"/>
    <line x1="0" y1="52" x2="1280" y2="52" stroke="#ff3300" stroke-width="1"/>
    <line x1="0" y1="56" x2="1280" y2="56" stroke="#ff3300" stroke-width="1"/>
    <line x1="0" y1="60" x2="1280" y2="60" stroke="#ff3300" stroke-width="1"/>
    <line x1="0" y1="64" x2="1280" y2="64" stroke="#ff3300" stroke-width="1"/>
    <line x1="0" y1="68" x2="1280" y2="68" stroke="#ff3300" stroke-width="1"/>
    <line x1="0" y1="72" x2="1280" y2="72" stroke="#ff3300" stroke-width="1"/>
    <line x1="0" y1="76" x2="1280" y2="76" stroke="#ff3300" stroke-width="1"/>
    <line x1="0" y1="80" x2="1280" y2="80" stroke="#ff3300" stroke-width="1"/>
    <line x1="0" y1="84" x2="1280" y2="84" stroke="#ff3300" stroke-width="1"/>
    <line x1="0" y1="88" x2="1280" y2="88" stroke="#ff3300" stroke-width="1"/>
    <line x1="0" y1="92" x2="1280" y2="92" stroke="#ff3300" stroke-width="1"/>
    <line x1="0" y1="96" x2="1280" y2="96" stroke="#ff3300" stroke-width="1"/>
    <line x1="0" y1="100" x2="1280" y2="100" stroke="#ff3300" stroke-width="1"/>
    <line x1="0" y1="104" x2="1280" y2="104" stroke="#ff3300" stroke-width="1"/>
    <line x1="0" y1="108" x2="1280" y2="108" stroke="#ff3300" stroke-width="1"/>
    <line x1="0" y1="112" x2="1280" y2="112" stroke="#ff3300" stroke-width="1"/>
    <line x1="0" y1="116" x2="1280" y2="116" stroke="#ff3300" stroke-width="1"/>
    <line x1="0" y1="120" x2="1280" y2="120" stroke="#ff3300" stroke-width="1"/>
    <line x1="0" y1="124" x2="1280" y2="124" stroke="#ff3300" stroke-width="1"/>
    <line x1="0" y1="128" x2="1280" y2="128" stroke="#ff3300" stroke-width="1"/>
    <line x1="0" y1="132" x2="1280" y2="132" stroke="#ff3300" stroke-width="1"/>
    <line x1="0" y1="136" x2="1280" y2="136" stroke="#ff3300" stroke-width="1"/>
    <line x1="0" y1="140" x2="1280" y2="140" stroke="#ff3300" stroke-width="1"/>
    <line x1="0" y1="144" x2="1280" y2="144" stroke="#ff3300" stroke-width="1"/>
    <line x1="0" y1="148" x2="1280" y2="148" stroke="#ff3300" stroke-width="1"/>
    <line x1="0" y1="152" x2="1280" y2="152" stroke="#ff3300" stroke-width="1"/>
    <line x1="0" y1="156" x2="1280" y2="156" stroke="#ff3300" stroke-width="1"/>
    <line x1="0" y1="160" x2="1280" y2="160" stroke="#ff3300" stroke-width="1"/>
    <line x1="0" y1="164" x2="1280" y2="164" stroke="#ff3300" stroke-width="1"/>
    <line x1="0" y1="168" x2="1280" y2="168" stroke="#ff3300" stroke-width="1"/>
    <line x1="0" y1="172" x2="1280" y2="172" stroke="#ff3300" stroke-width="1"/>
    <line x1="0" y1="176" x2="1280" y2="176" stroke="#ff3300" stroke-width="1"/>
    <line x1="0" y1="180" x2="1280" y2="180" stroke="#ff3300" stroke-width="1"/>
    <line x1="0" y1="184" x2="1280" y2="184" stroke="#ff3300" stroke-width="1"/>
    <line x1="0" y1="188" x2="1280" y2="188" stroke="#ff3300" stroke-width="1"/>
    <line x1="0" y1="192" x2="1280" y2="192" stroke="#ff3300" stroke-width="1"/>
    <line x1="0" y1="196" x2="1280" y2="196" stroke="#ff3300" stroke-width="1"/>
    <line x1="0" y1="200" x2="1280" y2="200" stroke="#ff3300" stroke-width="1"/>
    <line x1="0" y1="204" x2="1280" y2="204" stroke="#ff3300" stroke-width="1"/>
    <line x1="0" y1="208" x2="1280" y2="208" stroke="#ff3300" stroke-width="1"/>
    <line x1="0" y1="212" x2="1280" y2="212" stroke="#ff3300" stroke-width="1"/>
    <line x1="0" y1="216" x2="1280" y2="216" stroke="#ff3300" stroke-width="1"/>
    <line x1="0" y1="220" x2="1280" y2="220" stroke="#ff3300" stroke-width="1"/>
    <line x1="0" y1="224" x2="1280" y2="224" stroke="#ff3300" stroke-width="1"/>
    <line x1="0" y1="228" x2="1280" y2="228" stroke="#ff3300" stroke-width="1"/>
    <line x1="0" y1="232" x2="1280" y2="232" stroke="#ff3300" stroke-width="1"/>
    <line x1="0" y1="236" x2="1280" y2="236" stroke="#ff3300" stroke-width="1"/>
    <line x1="0" y1="240" x2="1280" y2="240" stroke="#ff3300" stroke-width="1"/>
    <line x1="0" y1="244" x2="1280" y2="244" stroke="#ff3300" stroke-width="1"/>
    <line x1="0" y1="248" x2="1280" y2="248" stroke="#ff3300" stroke-width="1"/>
    <line x1="0" y1="252" x2="1280" y2="252" stroke="#ff3300" stroke-width="1"/>
    <line x1="0" y1="256" x2="1280" y2="256" stroke="#ff3300" stroke-width="1"/>
    <line x1="0" y1="260" x2="1280" y2="260" stroke="#ff3300" stroke-width="1"/>
    <line x1="0" y1="264" x2="1280" y2="264" stroke="#ff3300" stroke-width="1"/>
    <line x1="0" y1="268" x2="1280" y2="268" stroke="#ff3300" stroke-width="1"/>
    <line x1="0" y1="272" x2="1280" y2="272" stroke="#ff3300" stroke-width="1"/>
    <line x1="0" y1="276" x2="1280" y2="276" stroke="#ff3300" stroke-width="1"/>
    <line x1="0" y1="280" x2="1280" y2="280" stroke="#ff3300" stroke-width="1"/>
    <line x1="0" y1="284" x2="1280" y2="284" stroke="#ff3300" stroke-width="1"/>
    <line x1="0" y1="288" x2="1280" y2="288" stroke="#ff3300" stroke-width="1"/>
    <line x1="0" y1="292" x2="1280" y2="292" stroke="#ff3300" stroke-width="1"/>
    <line x1="0" y1="296" x2="1280" y2="296" stroke="#ff3300" stroke-width="1"/>
    <line x1="0" y1="300" x2="1280" y2="300" stroke="#ff3300" stroke-width="1"/>
    <line x1="0" y1="304" x2="1280" y2="304" stroke="#ff3300" stroke-width="1"/>
    <line x1="0" y1="308" x2="1280" y2="308" stroke="#ff3300" stroke-width="1"/>
    <line x1="0" y1="312" x2="1280" y2="312" stroke="#ff3300" stroke-width="1"/>
    <line x1="0" y1="316" x2="1280" y2="316" stroke="#ff3300" stroke-width="1"/>
    <line x1="0" y1="320" x2="1280" y2="320" stroke="#ff3300" stroke-width="1"/>
    <line x1="0" y1="324" x2="1280" y2="324" stroke="#ff3300" stroke-width="1"/>
    <line x1="0" y1="328" x2="1280" y2="328" stroke="#ff3300" stroke-width="1"/>
    <line x1="0" y1="332" x2="1280" y2="332" stroke="#ff3300" stroke-width="1"/>
    <line x1="0" y1="336" x2="1280" y2="336" stroke="#ff3300" stroke-width="1"/>
    <line x1="0" y1="340" x2="1280" y2="340" stroke="#ff3300" stroke-width="1"/>
    <line x1="0" y1="344" x2="1280" y2="344" stroke="#ff3300" stroke-width="1"/>
    <line x1="0" y1="348" x2="1280" y2="348" stroke="#ff3300" stroke-width="1"/>
    <line x1="0" y1="352" x2="1280" y2="352" stroke="#ff3300" stroke-width="1"/>
    <line x1="0" y1="356" x2="1280" y2="356" stroke="#ff3300" stroke-width="1"/>
    <line x1="0" y1="360" x2="1280" y2="360" stroke="#ff3300" stroke-width="1"/>
    <line x1="0" y1="364" x2="1280" y2="364" stroke="#ff3300" stroke-width="1"/>
    <line x1="0" y1="368" x2="1280" y2="368" stroke="#ff3300" stroke-width="1"/>
    <line x1="0" y1="372" x2="1280" y2="372" stroke="#ff3300" stroke-width="1"/>
    <line x1="0" y1="376" x2="1280" y2="376" stroke="#ff3300" stroke-width="1"/>
    <line x1="0" y1="380" x2="1280" y2="380" stroke="#ff3300" stroke-width="1"/>
    <line x1="0" y1="384" x2="1280" y2="384" stroke="#ff3300" stroke-width="1"/>
    <line x1="0" y1="388" x2="1280" y2="388" stroke="#ff3300" stroke-width="1"/>
    <line x1="0" y1="392" x2="1280" y2="392" stroke="#ff3300" stroke-width="1"/>
    <line x1="0" y1="396" x2="1280" y2="396" stroke="#ff3300" stroke-width="1"/>
    <line x1="0" y1="400" x2="1280" y2="400" stroke="#ff3300" stroke-width="1"/>
  </g>

  <!-- Grid dots -->
  <g opacity="0.04" fill="#ff3300">
    <circle cx="64" cy="50" r="1"/><circle cx="192" cy="50" r="1"/><circle cx="320" cy="50" r="1"/>
    <circle cx="448" cy="50" r="1"/><circle cx="576" cy="50" r="1"/><circle cx="704" cy="50" r="1"/>
    <circle cx="832" cy="50" r="1"/><circle cx="960" cy="50" r="1"/><circle cx="1088" cy="50" r="1"/>
    <circle cx="1216" cy="50" r="1"/>
    <circle cx="64" cy="150" r="1"/><circle cx="192" cy="150" r="1"/><circle cx="320" cy="150" r="1"/>
    <circle cx="448" cy="150" r="1"/><circle cx="576" cy="150" r="1"/><circle cx="704" cy="150" r="1"/>
    <circle cx="832" cy="150" r="1"/><circle cx="960" cy="150" r="1"/><circle cx="1088" cy="150" r="1"/>
    <circle cx="1216" cy="150" r="1"/>
    <circle cx="64" cy="250" r="1"/><circle cx="192" cy="250" r="1"/><circle cx="320" cy="250" r="1"/>
    <circle cx="448" cy="250" r="1"/><circle cx="576" cy="250" r="1"/><circle cx="704" cy="250" r="1"/>
    <circle cx="832" cy="250" r="1"/><circle cx="960" cy="250" r="1"/><circle cx="1088" cy="250" r="1"/>
    <circle cx="1216" cy="250" r="1"/>
    <circle cx="64" cy="350" r="1"/><circle cx="192" cy="350" r="1"/><circle cx="320" cy="350" r="1"/>
    <circle cx="448" cy="350" r="1"/><circle cx="576" cy="350" r="1"/><circle cx="704" cy="350" r="1"/>
    <circle cx="832" cy="350" r="1"/><circle cx="960" cy="350" r="1"/><circle cx="1088" cy="350" r="1"/>
    <circle cx="1216" cy="350" r="1"/>
  </g>

  <!-- Center glow orb -->
  <circle cx="640" cy="200" r="280" fill="url(#redGlow)" opacity="0.6"/>

  <!-- Top border line -->
  <line x1="0" y1="1" x2="1280" y2="1" stroke="#ff2200" stroke-width="1" opacity="0.4"/>
  <!-- Bottom border line -->
  <line x1="0" y1="399" x2="1280" y2="399" stroke="#ff2200" stroke-width="1" opacity="0.4"/>

  <!-- Corner brackets -->
  <g stroke="#ff2200" stroke-width="1.5" fill="none" opacity="0.6">
    <!-- top left -->
    <polyline points="20,20 20,50 50,50"/>
    <polyline points="20,20 50,20"/>
    <!-- top right -->
    <polyline points="1260,20 1230,20 1230,50"/>
    <polyline points="1260,20 1260,50"/>
    <!-- bottom left -->
    <polyline points="20,380 20,350 50,350"/>
    <polyline points="20,380 50,380"/>
    <!-- bottom right -->
    <polyline points="1260,380 1230,380 1230,350"/>
    <polyline points="1260,380 1260,350"/>
  </g>

  <!-- Main title glow layer -->
  <text x="640" y="190"
    font-family="'Courier New', Courier, monospace"
    font-size="110"
    font-weight="bold"
    text-anchor="middle"
    fill="#ff2200"
    opacity="0.15"
    filter="url(#softglow)">EREBUS</text>

  <!-- Main title -->
  <text x="640" y="190"
    font-family="'Courier New', Courier, monospace"
    font-size="110"
    font-weight="bold"
    text-anchor="middle"
    fill="#ff2200"
    filter="url(#textglow)"
    letter-spacing="18">EREBUS</text>

  <!-- Subtitle -->
  <text x="640" y="240"
    font-family="'Courier New', Courier, monospace"
    font-size="14"
    text-anchor="middle"
    fill="#cc3300"
    letter-spacing="8"
    opacity="0.9">autonomous ai agent · solana · x/twitter</text>

  <!-- Horizontal rule -->
  <line x1="340" y1="260" x2="940" y2="260" stroke="#ff2200" stroke-width="0.5" opacity="0.3"/>

  <!-- Tag pills -->
  <!-- python -->
  <rect x="334" y="280" width="96" height="22" rx="3" fill="none" stroke="#ff2200" stroke-width="0.8" opacity="0.5"/>
  <text x="382" y="295" font-family="'Courier New', monospace" font-size="10" text-anchor="middle" fill="#ff4422" letter-spacing="2" opacity="0.8">python 3.11</text>

  <!-- claude -->
  <rect x="444" y="280" width="96" height="22" rx="3" fill="none" stroke="#ff2200" stroke-width="0.8" opacity="0.5"/>
  <text x="492" y="295" font-family="'Courier New', monospace" font-size="10" text-anchor="middle" fill="#ff4422" letter-spacing="2" opacity="0.8">claude ai</text>

  <!-- solana -->
  <rect x="554" y="280" width="96" height="22" rx="3" fill="none" stroke="#ff2200" stroke-width="0.8" opacity="0.5"/>
  <text x="602" y="295" font-family="'Courier New', monospace" font-size="10" text-anchor="middle" fill="#ff4422" letter-spacing="2" opacity="0.8">solana</text>

  <!-- meteora -->
  <rect x="664" y="280" width="96" height="22" rx="3" fill="none" stroke="#ff2200" stroke-width="0.8" opacity="0.5"/>
  <text x="712" y="295" font-family="'Courier New', monospace" font-size="10" text-anchor="middle" fill="#ff4422" letter-spacing="2" opacity="0.8">meteora</text>

  <!-- pump.fun -->
  <rect x="774" y="280" width="96" height="22" rx="3" fill="none" stroke="#ff2200" stroke-width="0.8" opacity="0.5"/>
  <text x="822" y="295" font-family="'Courier New', monospace" font-size="10" text-anchor="middle" fill="#ff4422" letter-spacing="2" opacity="0.8">pump.fun</text>

  <!-- Bottom tagline -->
  <text x="640" y="345"
    font-family="'Courier New', Courier, monospace"
    font-size="11"
    text-anchor="middle"
    fill="#661100"
    letter-spacing="4"
    opacity="0.7">the signal does not ask permission</text>

  <!-- Corner status dots -->
  <circle cx="36" cy="36" r="3" fill="#ff2200" opacity="0.7" filter="url(#glow)"/>
  <circle cx="1244" cy="36" r="3" fill="#ff2200" opacity="0.7" filter="url(#glow)"/>
  <circle cx="36" cy="364" r="3" fill="#ff2200" opacity="0.2"/>
  <circle cx="1244" cy="364" r="3" fill="#ff2200" opacity="0.2"/>

  <!-- Small system text top left -->
  <text x="56" y="39" font-family="'Courier New', monospace" font-size="9" fill="#ff2200" opacity="0.4" letter-spacing="2">SYSTEM ACTIVE</text>
  <!-- Small system text top right -->
  <text x="1224" y="39" font-family="'Courier New', monospace" font-size="9" fill="#ff2200" opacity="0.4" letter-spacing="2" text-anchor="end">v1.0.0</text>
</svg>
